# xmcd CD database file
#
# Track frame offsets:
#	150
#	13070
#	26500
#	39877
#	52767
#	64637
#	77482
#	91037
#	103012
#	115730
#	129085
#	140425
#	152385
#	163625
#	175545
#	188382
#	200072
#	211217
#	222997
#
# Disc length: 3117 seconds
#
# Revision: 0
# Processed by: cddbd v1.5.2PL0 Copyright (c) Steve Scherf et al.
# Submitted via: CDex 1.70beta2
#
DISCID=e00c2b13
DTITLE=Robert Johnson - Complete Recording
DYEAR=1936
DGENRE=Blues
TTITLE0=Kindhearted Woman Blues
TTITLE1=I believe i will dust my Broom
TTITLE2=Sweet Home Chicago
TTITLE3=Rambling on my Mind
TTITLE4=When you got a Good friend
TTITLE5=Come on in my Kitchen
TTITLE6=Terraplane Blues
TTITLE7=Phonograph Blues
TTITLE8=32-20 Blues
TTITLE9=They are red  hot 
TTITLE10=Dead Shrimp Blues 
TTITLE11=Cross Road Blues
TTITLE12=Walking Blues
TTITLE13=Last Fair Deal Gone Down
TTITLE14=Preaching Blues 
TTITLE15=If I had Possession Over judgement Day
TTITLE16=Stones In My Passway
TTITLE17=I am Steady rollin'Man 
TTITLE18=From Four Till Late
EXTD=YEAR: 1936
EXTT0=
EXTT1=
EXTT2=
EXTT3=
EXTT4=
EXTT5=
EXTT6=
EXTT7=
EXTT8=
EXTT9=
EXTT10=
EXTT11=
EXTT12=
EXTT13=
EXTT14=
EXTT15=
EXTT16=
EXTT17=
EXTT18=
PLAYORDER=
